<?xml version="1.0" encoding="UTF-8"?>
<svg id="Calque_1" data-name="Calque 1" xmlns="http://www.w3.org/2000/svg" xmlns:xlink="http://www.w3.org/1999/xlink" viewBox="0 0 294.64 294.64">
  <defs>
    <style>
      .cls-1 {
        fill: #a100f2;
      }

      .cls-1, .cls-2, .cls-3, .cls-4, .cls-5, .cls-6 {
        stroke-width: 0px;
      }

      .cls-2 {
        fill: #4cc9f0;
      }

      .cls-3 {
        fill: none;
      }

      .cls-4 {
        fill: #fff;
      }

      .cls-7 {
        clip-path: url(#clippath);
      }

      .cls-5 {
        fill: #1d1d1b;
      }

      .cls-6 {
        fill: aqua;
      }
    </style>
    <clipPath id="clippath">
      <rect class="cls-3" width="294.64" height="294.64" rx="33.63" ry="33.63"/>
    </clipPath>
  </defs>
  <g class="cls-7">
    <rect class="cls-1" width="294.64" height="294.64" rx="33.63" ry="33.63"/>
    <rect class="cls-2" x="37.3" y="238.74" width="22.38" height="68.19"/>
    <rect class="cls-4" x="59.68" y="249.91" width="22.14" height="57.01"/>
    <rect class="cls-2" x="81.82" y="274.12" width="19.05" height="32.81"/>
    <rect class="cls-4" x="100.87" y="255" width="22.5" height="51.95"/>
    <rect class="cls-2" x="123.37" y="283.64" width="23.42" height="13.04"/>
    <rect class="cls-4" x="146.54" y="265.95" width="23.08" height="32.53"/>
    <rect class="cls-2" x="169.62" y="247.33" width="22.38" height="51.7"/>
    <rect class="cls-4" x="192" y="238.74" width="22.14" height="59.74"/>
    <rect class="cls-2" x="214.14" y="247.33" width="19.05" height="50.04"/>
    <rect class="cls-4" x="233.19" y="254.98" width="22.5" height="47.93"/>
    <circle class="cls-6" cx="110.57" cy="136.96" r="62.65"/>
    <circle class="cls-4" cx="183.1" cy="136.96" r="62.65"/>
    <ellipse class="cls-5" cx="65.77" cy="127.46" rx="4.98" ry="16.62"/>
    <ellipse class="cls-5" cx="81.82" cy="127.46" rx="4.98" ry="16.62"/>
    <ellipse class="cls-5" cx="133.93" cy="127.46" rx="4.98" ry="16.62"/>
    <ellipse class="cls-5" cx="149.99" cy="127.46" rx="4.98" ry="16.62"/>
    <rect class="cls-4" x="14.8" y="255.02" width="22.5" height="51.9"/>
    <rect class="cls-2" x="-7.71" y="265.95" width="22.5" height="38.19"/>
    <rect class="cls-2" x="255.69" y="247.05" width="22.14" height="59.74"/>
    <rect class="cls-4" x="277.83" y="255.65" width="19.05" height="50.04"/>
  </g>
</svg>